HIERARCHY
ROOT RootJoint
{
    OFFSET   0.000000   0.000000   0.000000
    CHANNELS 6 Xposition Yposition Zposition Xrotation Yrotation Zrotation
    JOINT pelvis_lowerback
    {
        OFFSET   0.000000   0.093605   0.000000
        CHANNELS 3 Xrotation Yrotation Zrotation
        JOINT lowerback_torso
        {
            OFFSET   0.000000   0.100000   0.000000
            CHANNELS 3 Xrotation Yrotation Zrotation
            JOINT torso_head
            {
                OFFSET   0.000000   0.282350   0.000000
                CHANNELS 3 Xrotation Yrotation Zrotation
                End Site
                {
                    OFFSET   0.000000   0.192650   0.000000
                }
            }
            JOINT rTorso_Clavicle
            {
                OFFSET  -0.001000   0.157500   0.000000
                CHANNELS 3 Xrotation Yrotation Zrotation
                JOINT rShoulder
                {
                    OFFSET  -0.117647   0.000000   0.000000
                    CHANNELS 3 Xrotation Yrotation Zrotation
                    JOINT rElbow
                    {
                        OFFSET  -0.245000   0.000000   0.000000
                        CHANNELS 3 Xrotation Yrotation Zrotation
                        JOINT rWrist
                        {
                            OFFSET  -0.240000   0.000000   0.000000
                            CHANNELS 3 Xrotation Yrotation Zrotation
                            End Site
                            {
                                OFFSET  -0.116353  -0.002500   0.000000
                            }
                        }
                    }
                }
            }
            JOINT lTorso_Clavicle
            {
                OFFSET   0.001000   0.157500   0.000000
                CHANNELS 3 Xrotation Yrotation Zrotation
                JOINT lShoulder
                {
                    OFFSET   0.117647   0.000000   0.000000
                    CHANNELS 3 Xrotation Yrotation Zrotation
                    JOINT lElbow
                    {
                        OFFSET   0.245000   0.000000   0.000000
                        CHANNELS 3 Xrotation Yrotation Zrotation
                        JOINT lWrist
                        {
                            OFFSET   0.240000   0.000000   0.000000
                            CHANNELS 3 Xrotation Yrotation Zrotation
                            End Site
                            {
                                OFFSET   0.116353  -0.002500   0.000000
                            }
                        }
                    }
                }
            }
        }
    }
    JOINT rHip
    {
        OFFSET  -0.100000  -0.051395   0.000000
        CHANNELS 3 Xrotation Yrotation Zrotation
        JOINT rKnee
        {
            OFFSET   0.000000  -0.410000   0.000000
            CHANNELS 3 Xrotation Yrotation Zrotation
            JOINT rAnkle
            {
                OFFSET   0.000000  -0.390000   0.000000
                CHANNELS 3 Xrotation Yrotation Zrotation
                JOINT rToeJoint
                {
                    OFFSET   0.000000  -0.050000   0.130000
                    CHANNELS 3 Xrotation Yrotation Zrotation
                    End Site
                    {
                        OFFSET  -0.010000   0.002000   0.060000
                    }
                }
            }
        }
    }
    JOINT lHip
    {
        OFFSET   0.100000  -0.051395   0.000000
        CHANNELS 3 Xrotation Yrotation Zrotation
        JOINT lKnee
        {
            OFFSET   0.000000  -0.410000   0.000000
            CHANNELS 3 Xrotation Yrotation Zrotation
            JOINT lAnkle
            {
                OFFSET   0.000000  -0.390000   0.000000
                CHANNELS 3 Xrotation Yrotation Zrotation
                JOINT lToeJoint
                {
                    OFFSET   0.000000  -0.050000   0.130000
                    CHANNELS 3 Xrotation Yrotation Zrotation
                    End Site
                    {
                        OFFSET   0.010000   0.002000   0.060000
                    }
                }
            }
        }
    }
}
MOTION
Frames: 17
Frame Time:   0.008333
 -2.381822   0.908663   4.027655  -1.228131   0.975454   2.696529  13.287158   0.206987  -0.672814   3.801536   0.336552  -0.019562  -0.341166   0.833318  -0.064034   3.657910  -9.523763   7.618474   6.787357   3.144803  47.179155  -0.000121  21.957300  -0.000968   0.797978   3.817039   0.204330   5.138401   9.081235  -5.924369  10.098272  -0.782078 -50.551319   0.000300 -23.940293   0.001654   1.773379  -4.318150  -1.154607  -3.531950   0.365317  -4.780921  21.576175   0.000240   0.000585 -16.447594  -3.444263   0.368848  -0.469196   0.000015  -0.000000  -0.214753  -2.540311  -1.408939  13.841713   0.000254   0.000408 -13.317717   3.621949   6.339273   0.797798  -0.000002  -0.000000
 -2.381630   0.908241   4.026436  -0.820930   1.011301   2.699351  13.646521   0.190133  -0.727539   3.768947   0.337842  -0.014053  -0.585439   0.858850  -0.113011   3.756800  -9.677848   7.438216   7.203888   3.167260  47.188591  -0.000083  22.079449  -0.001502   0.832652   3.877824   0.140689   5.192055   9.112485  -5.812979  10.473846  -0.842096 -50.575407   0.000283 -23.968145   0.001500   1.716411  -4.426603  -1.099176  -4.262363   0.451660  -4.790679  22.029181   0.000311   0.000740 -16.577494  -3.519283   0.346607  -0.455658   0.000016  -0.000000  -1.070364  -2.488231  -1.437544  14.525843   0.000286   0.000658 -13.537405   3.564832   6.289737   0.787091  -0.000006   0.000000
 -2.381443   0.907783   4.025138  -0.432471   1.047560   2.696009  14.046533   0.172732  -0.774128   3.772372   0.337662  -0.010618  -0.821147   0.884133  -0.160851   3.860206  -9.828644   7.269357   7.603169   3.180633  47.197206  -0.000040  22.189850  -0.001881   0.869954   3.939396   0.093006   5.249032   9.142938  -5.713981  10.831166  -0.894181 -50.600408   0.000262 -23.989390   0.001339   1.663554  -4.514765  -1.052441  -4.983388   0.535208  -4.793963  22.491670   0.000370   0.000861 -16.706476  -3.592247   0.329790  -0.444625   0.000015  -0.000000  -1.904459  -2.437060  -1.458850  15.197723   0.000312   0.000853 -13.760147   3.511619   6.238026   0.778431  -0.000009  -0.000000
 -2.381259   0.907335   4.023833  -0.062212   1.080933   2.692183  14.463499   0.154569  -0.819918   3.813429   0.336088  -0.009281  -1.035675   0.908047  -0.205520   3.964561  -9.976606   7.115708   7.982808   3.186963  47.206056   0.000003  22.288610  -0.002115   0.906441   3.977655   0.052059   5.308535   9.176270  -5.627037  11.170215  -0.938834 -50.625867   0.000239 -24.005626   0.001179   1.613756  -4.578361  -1.013501  -5.675214   0.615203  -4.796846  22.931312   0.000409   0.000926 -16.823560  -3.660471   0.314175  -0.434775   0.000014  -0.000000  -2.702272  -2.390191  -1.478738  15.833102   0.000326   0.000958 -13.959539   3.460378   6.190584   0.770168  -0.000011  -0.000000
 -2.381078   0.906899   4.022555   0.294100   1.111831   2.685045  14.886226   0.135787  -0.862526   3.882484   0.333521  -0.008830  -1.230780   0.930529  -0.247197   4.068712 -10.121485   6.974717   8.343134   3.187631  47.215496   0.000041  22.377359  -0.002237   0.941728   3.994402   0.017307   5.370145   9.212742  -5.549601  11.491971  -0.976809 -50.652064   0.000214 -24.017900   0.001024   1.566626  -4.621924  -0.982880  -6.337407   0.691030  -4.796346  23.342693   0.000431   0.000947 -16.928173  -3.724307   0.299135  -0.425834   0.000013  -0.000000  -3.461927  -2.346003  -1.494377  16.425004   0.000332   0.001003 -14.140092   3.412944   6.146909   0.762710  -0.000011  -0.000000
 -2.380898   0.906479   4.021323   0.638067   1.140458   2.675075  15.308863   0.116507  -0.902577   3.972014   0.330165  -0.008935  -1.408840   0.951629  -0.286032   4.171284 -10.262250   6.844941   8.684251   3.184021  47.225394   0.000072  22.457454  -0.002273   0.975721   3.993965  -0.012276   5.432642   9.251259  -5.479750  11.796667  -1.009122 -50.678253   0.000189 -24.026999   0.000878   1.521886  -4.649344  -0.958943  -6.969982   0.762691  -4.793112  23.725608   0.000437   0.000936 -17.021737  -3.784066   0.284627  -0.417614   0.000012  -0.000000  -4.184338  -2.304459  -1.506437  16.974817   0.000332   0.001004 -14.303881   3.369034   6.106917   0.755874  -0.000011   0.000000
 -2.380739   0.905995   4.020218   0.955285   1.174910   2.634833  15.728613   0.096957  -0.919881   4.081242   0.326872   0.000766  -1.570704   0.971409  -0.321170   4.273115 -10.400284   6.719824   9.008139   3.175553  47.233153   0.000091  22.529591  -0.002240   1.008468   3.978965  -0.036958   5.497342   9.293495  -5.413756  12.086606  -1.035353 -50.704719   0.000164 -24.033524   0.000744   1.479484  -4.664413  -0.942612  -7.560024   0.821157  -4.757341  24.098231   0.000431   0.000924 -17.120025  -3.843371   0.276170  -0.412045   0.000010  -0.000000  -4.882942  -2.238999  -1.481114  17.515420   0.000347   0.001163 -14.246449   3.358091   6.102237   0.730372  -0.000007  -0.000010
 -2.380551   0.905322   4.018436   1.501517   1.208029   2.668851  16.141803   0.048715  -1.012578   4.018085   0.328139  -0.006908  -1.895017   1.006585  -0.380471   4.346854 -10.537464   6.539348   9.423344   3.180820  47.340379   0.000184  22.638716  -0.002501   1.059155   4.026135  -0.120130   5.549150   9.329024  -5.300382  12.458777  -1.105912 -50.788305  -0.000028 -23.963352   0.000078   1.402336  -4.780585  -0.851359  -8.568281   0.927585  -4.808965  24.732368   0.000576   0.001053 -17.287635  -3.873923   0.284332  -0.407353   0.000009   0.000001  -6.066452  -2.142430  -1.544220  18.477767   0.000455   0.001608 -14.482335   3.285450   6.022697   0.561217  -0.000112  -0.000009
 -2.380366   0.904569   4.016567   2.026494   1.236200   2.708920  16.596645  -0.001082  -1.102433   3.988063   0.327274  -0.023894  -2.209131   1.040176  -0.439585   4.422394 -10.667486   6.381016   9.817288   3.183392  47.450343   0.000273  22.738074  -0.002664   1.109562   4.069850  -0.181346   5.605535   9.362161  -5.207918  12.813912  -1.169099 -50.876548  -0.000203 -23.891308  -0.000482   1.330421  -4.858577  -0.781272  -9.543754   1.052817  -4.867132  25.340708   0.000728   0.001198 -17.486223  -3.886944   0.297200  -0.332022   0.000013   0.000045  -7.226632  -2.050357  -1.611449  19.425760   0.000527   0.001863 -14.704462   3.213282   5.944318   0.396055  -0.000192   0.000007
 -2.380189   0.903844   4.014708   2.518143   1.238435   2.727545  17.076704  -0.040100  -1.174025   4.000851   0.333467  -0.039271  -2.496453   1.072096  -0.495009   4.495038 -10.788538   6.242980  10.187073   3.185239  47.556724   0.000348  22.828122  -0.002734   1.158440   4.095952  -0.229741   5.664154   9.397232  -5.140637  13.150444  -1.226485 -50.970023  -0.000353 -23.820287  -0.000929   1.262377  -4.907660  -0.732852 -10.498644   1.152477  -4.897064  25.961021   0.000742   0.001085 -17.628257  -3.918447   0.311597  -0.344187   0.000010   0.000036  -8.317762  -1.963483  -1.651600  20.313691   0.000517   0.001829 -14.899095   3.147669   5.873750   0.232676  -0.000242   0.000048
 -2.380011   0.903119   4.012908   2.986142   1.235678   2.739220  17.559590  -0.079310  -1.239192   4.045128   0.339430  -0.052655  -2.758361   1.101959  -0.545933   4.568017 -10.906298   6.120623  10.536621   3.184551  47.661006   0.000405  22.909896  -0.002726   1.205614   4.107491  -0.264153   5.725231   9.435393  -5.086605  13.469967  -1.277730 -51.064287  -0.000472 -23.751347  -0.001265   1.197888  -4.937825  -0.704807 -11.407693   1.248195  -4.918489  26.545295   0.000734   0.000961 -17.759112  -3.944747   0.323519  -0.353169   0.000007   0.000029  -9.349222  -1.883015  -1.682324  21.141108   0.000492   0.001713 -15.074369   3.087137   5.808879   0.081750  -0.000270   0.000081
 -2.379827   0.902399   4.011184   3.433799   1.231025   2.744344  18.039381  -0.118158  -1.297693   4.111436   0.344415  -0.064148  -2.998504   1.129945  -0.593067   4.640676 -11.020579   6.011258  10.866831   3.181432  47.761816   0.000442  22.984031  -0.002659   1.250921   4.105755  -0.288425   5.786868   9.475060  -5.041882  13.772163  -1.323624 -51.156582  -0.000558 -23.684915  -0.001505   1.136506  -4.953678  -0.689625 -12.272940   1.339298  -4.932388  27.093921   0.000714   0.000844 -17.879621  -3.968455   0.335233  -0.359999   0.000005   0.000023 -10.324449  -1.807698  -1.704722  21.910050   0.000464   0.001572 -15.234750   3.031427   5.748946  -0.053581  -0.000281   0.000102
 -2.379635   0.901688   4.009549   3.862581   1.225790   2.744043  18.511930  -0.156486  -1.350408   4.193730   0.348333  -0.073883  -3.219291   1.156197  -0.636771   4.711934 -11.130586   5.912503  11.178083   3.176584  47.858388   0.000461  23.051478  -0.002551   1.294378   4.093333  -0.305476   5.847574   9.514866  -5.003528  14.056947  -1.365061 -51.245325  -0.000615 -23.621414  -0.001662   1.077947  -4.959089  -0.682257 -13.095391   1.425357  -4.940406  27.608178   0.000687   0.000738 -17.991243  -3.990460   0.346728  -0.365054   0.000004   0.000018 -11.245911  -1.737077  -1.720554  22.623975   0.000439   0.001427 -15.382960   2.980273   5.693423  -0.173670  -0.000280   0.000111
 -2.379469   0.900546   4.007137   4.603234   1.273931   2.778898  18.904021  -0.243294  -1.441764   4.054190   0.343514  -0.079667  -3.612478   1.183741  -0.700798   4.772377 -11.261452   5.734590  11.553039   3.116473  48.048170   0.000536  23.157448  -0.002675   1.335309   4.166821  -0.351281   5.893033   9.575807  -4.907241  14.430078  -1.423485 -51.388120  -0.000803 -23.514642  -0.002142   0.962875  -5.070343  -0.626322 -14.468277   1.595798  -4.991544  28.472152   0.001070   0.001291 -18.185759  -3.973570   0.361418  -0.408606  -0.000005  -0.000034 -12.889871  -1.601849  -1.779854  23.971800   0.000681   0.002401 -15.492793   2.896190   5.572027  -0.694371  -0.000674   0.000111
 -2.379325   0.899240   4.004694   5.291511   1.309673   2.813091  19.354864  -0.326253  -1.530176   3.953348   0.337627  -0.093405  -3.995079   1.210160  -0.762905   4.837060 -11.387858   5.577096  11.911301   3.054097  48.229857   0.000582  23.250907  -0.002710   1.373319   4.223169  -0.396603   5.943101   9.633872  -4.833532  14.785854  -1.474227 -51.529786  -0.000976 -23.407778  -0.002543   0.851975  -5.144118  -0.577763 -15.785874   1.776267  -5.037641  29.337975   0.001397   0.001712 -18.426886  -3.949224   0.390797  -0.386412  -0.000003  -0.000001 -14.492826  -1.463160  -1.832540  25.346899   0.000878   0.003100 -15.608413   2.820078   5.450300  -1.227692  -0.001004   0.000108
 -2.379187   0.897886   4.002311   5.930893   1.291932   2.836597  19.832515  -0.390758  -1.615867   3.901013   0.342952  -0.115427  -4.346615   1.235763  -0.821705   4.899388 -11.505306   5.438150  12.247875   2.995200  48.401796   0.000608  23.334993  -0.002675   1.410243   4.255939  -0.436984   5.997003   9.694051  -4.784535  15.123965  -1.519310 -51.672940  -0.001123 -23.303471  -0.002858   0.746135  -5.185521  -0.546871 -17.055788   1.909585  -5.060038  30.198141   0.001346   0.001400 -18.646056  -3.964203   0.427056  -0.389268  -0.000002  -0.000001 -15.998295  -1.323220  -1.861437  26.654060   0.000880   0.003098 -15.717542   2.759433   5.336727  -1.737868  -0.001216   0.000223
 -2.379051   0.896513   4.000020   6.532827   1.257282   2.850400  20.317485  -0.453747  -1.693779   3.884864   0.348987  -0.138892  -4.668706   1.259745  -0.876381   4.961087 -11.618028   5.314228  12.565340   2.938565  48.565407   0.000616  23.411080  -0.002586   1.445781   4.271592  -0.470113   6.052627   9.754626  -4.752258  15.443959  -1.560373 -51.815712  -0.001233 -23.203383  -0.003074   0.645341  -5.206196  -0.535918 -18.263816   2.042055  -5.067004  31.020154   0.001262   0.001077 -18.852852  -3.968326   0.459929  -0.391477  -0.000001  -0.000001 -17.415823  -1.194695  -1.873406  27.881406   0.000798   0.002834 -15.815858   2.703897   5.231530  -2.218159  -0.001333   0.000364
